<svg xmlns="http://www.w3.org/2000/svg" version="1.1" xmlns:xlink="http://www.w3.org/1999/xlink" xmlns:svgjs="http://svgjs.dev/svgjs" width="2000" height="1500" viewBox="0 0 2000 1500"><rect width="2000" height="1500" fill="#ed1703"></rect><g transform="matrix(0.75,0,0,0.75,249.090909090909,282.7536437246963)"><svg viewBox="0 0 396 247" data-background-color="#ed1703" preserveAspectRatio="xMidYMid meet" height="1247" width="2000" xmlns="http://www.w3.org/2000/svg" xmlns:xlink="http://www.w3.org/1999/xlink"><g id="tight-bounds" transform="matrix(1,0,0,1,0.2400000000000091,-0.09999999999999432)"><svg viewBox="0 0 395.52 247.2" height="247.2" width="395.52"><g><svg></svg></g><g><svg viewBox="0 0 395.52 247.2" height="247.2" width="395.52"><g transform="matrix(1,0,0,1,140.89576,47.215199999999996)"><svg viewBox="0 0 113.72848 152.7696" height="152.7696" width="113.72848"><g><svg viewBox="0 0 113.72848 152.7696" height="152.7696" width="113.72848"><g><svg viewBox="0 0 113.72848 152.7696" height="152.7696" width="113.72848"><g><svg viewBox="0 0 113.72848 152.7696" height="152.7696" width="113.72848"><g id="textblocktransform"><svg viewBox="0 0 113.72848 152.7696" height="152.7696" width="113.72848" id="textblock"><g><svg viewBox="0 0 113.72848 152.7696" height="152.7696" width="113.72848"><g transform="matrix(1,0,0,1,0,0)"><svg width="113.72848" viewBox="2.1 -35.5 26.799999999999997 36" height="152.7696" data-palette-color="#f7e1e1"><path d="M15.6 0.5L15.6 0.5Q11.25 0.5 8.3-0.85 5.35-2.2 3.78-4.33 2.2-6.45 2.1-8.8L2.1-8.8Q2.1-9.2 2.43-9.53 2.75-9.85 3.2-9.85L3.2-9.85 5.75-9.85Q6.35-9.85 6.65-9.55 6.95-9.25 7.05-8.85L7.05-8.85Q7.35-7.65 8.3-6.48 9.25-5.3 11.03-4.53 12.8-3.75 15.6-3.75L15.6-3.75Q19.9-3.75 21.93-5.28 23.95-6.8 23.95-9.35L23.95-9.35Q23.95-11.1 22.88-12.18 21.8-13.25 19.6-14.1 17.4-14.95 13.9-15.95L13.9-15.95Q10.25-17 7.85-18.25 5.45-19.5 4.28-21.35 3.1-23.2 3.1-26.05L3.1-26.05Q3.1-28.75 4.55-30.88 6-33 8.75-34.25 11.5-35.5 15.35-35.5L15.35-35.5Q18.45-35.5 20.78-34.68 23.1-33.85 24.65-32.48 26.2-31.1 27-29.53 27.8-27.95 27.85-26.45L27.85-26.45Q27.85-26.1 27.6-25.78 27.35-25.45 26.8-25.45L26.8-25.45 24.15-25.45Q23.8-25.45 23.43-25.65 23.05-25.85 22.85-26.4L22.85-26.4Q22.55-28.45 20.55-29.85 18.55-31.25 15.35-31.25L15.35-31.25Q12.1-31.25 10.08-30 8.05-28.75 8.05-26.1L8.05-26.1Q8.05-24.4 9-23.28 9.95-22.15 12-21.3 14.05-20.45 17.35-19.5L17.35-19.5Q21.35-18.4 23.9-17.18 26.45-15.95 27.68-14.13 28.9-12.3 28.9-9.45L28.9-9.45Q28.9-6.3 27.25-4.08 25.6-1.85 22.63-0.68 19.65 0.5 15.6 0.5Z" opacity="1" transform="matrix(1,0,0,1,0,0)" fill="#f7e1e1" class="wordmark-text-0" data-fill-palette-color="primary" id="text-0"></path></svg></g></svg></g></svg></g></svg></g></svg></g></svg></g></svg></g><path d="M323.197 41.215L323.197 0 75.997 0 75.997 247.2 323.197 247.2 323.197 205.985 309.42 205.985 309.42 233.423 89.774 233.423 89.774 13.777 309.42 13.777 309.42 41.215Z" fill="#f7e1e1" stroke="transparent" data-fill-palette-color="tertiary"></path></svg></g><defs></defs></svg><rect width="395.52" height="247.2" fill="none" stroke="none" visibility="hidden"></rect></g></svg></g></svg>